<svg xmlns="http://www.w3.org/2000/svg" viewBox="0 0 1200 1200" width="1200" height="1200">
    <defs>
      <linearGradient id="bg" x1="0" y1="0" x2="0.6" y2="1">
        <stop offset="0" stop-color="#1b1618"/><stop offset="1" stop-color="#0d0a0b"/>
      </linearGradient>
      <radialGradient id="glow" cx="0.5" cy="0.42" r="0.72">
        <stop offset="0" stop-color="#a8553f" stop-opacity="0.20"/>
        <stop offset="1" stop-color="#a8553f" stop-opacity="0"/>
      </radialGradient>
    </defs>
    <rect width="1200" height="1200" fill="url(#bg)"/>
    <rect width="1200" height="1200" fill="url(#glow)"/>
    <rect x="27" y="-51" width="719" height="145" rx="7" fill="#a8553f" opacity="0.062" transform="rotate(22.6 386 21)"/>
  <rect x="345" y="760" width="422" height="272" rx="14" fill="#ffffff" opacity="0.074" transform="rotate(3.2 556 896)"/>
  <rect x="148" y="865" width="691" height="179" rx="9" fill="#ffffff" opacity="0.053" transform="rotate(-24.8 494 955)"/>
  <rect x="1" y="44" width="325" height="193" rx="10" fill="#ffffff" opacity="0.090" transform="rotate(20.6 163 141)"/>
  <circle cx="508" cy="622" r="190" fill="#ffffff" opacity="0.047"/>
  <text x="468" y="684" font-size="696" font-family="PingFang SC, Hiragino Sans GB, Noto Sans CJK SC, Source Han Sans SC, Microsoft YaHei, sans-serif" fill="#ffffff" opacity="0.20" text-anchor="middle" dominant-baseline="central" transform="rotate(-13 600 600)">水</text>
  <text x="720" y="528" font-size="696" font-family="PingFang SC, Hiragino Sans GB, Noto Sans CJK SC, Source Han Sans SC, Microsoft YaHei, sans-serif" fill="#ffffff" opacity="0.15" text-anchor="middle" dominant-baseline="central" transform="rotate(10 600 600)">水</text>
  <text x="600" y="600" font-size="696" font-family="PingFang SC, Hiragino Sans GB, Noto Sans CJK SC, Source Han Sans SC, Microsoft YaHei, sans-serif" fill="#f4f3ef" opacity="0.86" text-anchor="middle" dominant-baseline="central">水</text>
  <line x1="54" y1="1060" x2="162" y2="1060" stroke="#a8553f" stroke-width="2"/>
  <text x="54" y="1124" font-family="Inter, Helvetica Neue, Helvetica, Arial, sans-serif" font-size="31" fill="#f4f3ef" opacity="0.82" letter-spacing="0.06em">SHUI — Water</text>
  <text x="54" y="1170" font-family="Inter, Helvetica Neue, Helvetica, Arial, sans-serif" font-size="22" fill="#f4f3ef" opacity="0.42" letter-spacing="0.16em">COVER — 2025</text>
  <text x="1146" y="85" font-family="Inter, Helvetica Neue, Helvetica, Arial, sans-serif" font-size="24" fill="#f4f3ef" opacity="0.32" text-anchor="end" letter-spacing="0.18em">PLACEHOLDER 1200×1200</text>
  </svg>
