<svg xmlns="http://www.w3.org/2000/svg" viewBox="0 0 1200 1200" width="1200" height="1200">
    <defs>
      <linearGradient id="bg" x1="0" y1="0" x2="0.6" y2="1">
        <stop offset="0" stop-color="#1b1618"/><stop offset="1" stop-color="#0d0a0b"/>
      </linearGradient>
      <radialGradient id="glow" cx="0.5" cy="0.42" r="0.72">
        <stop offset="0" stop-color="#a8553f" stop-opacity="0.20"/>
        <stop offset="1" stop-color="#a8553f" stop-opacity="0"/>
      </radialGradient>
    </defs>
    <rect width="1200" height="1200" fill="url(#bg)"/>
    <rect width="1200" height="1200" fill="url(#glow)"/>
    <rect x="750" y="541" width="319" height="262" rx="13" fill="#ffffff" opacity="0.072" transform="rotate(18.6 910 672)"/>
  <rect x="282" y="44" width="302" height="602" rx="15" fill="#ffffff" opacity="0.092" transform="rotate(-20.6 433 345)"/>
  <rect x="921" y="394" width="741" height="739" rx="37" fill="#ffffff" opacity="0.047" transform="rotate(-19.6 1292 764)"/>
  <circle cx="690" cy="478" r="246" fill="#ffffff" opacity="0.069"/>
  <rect x="931" y="443" width="482" height="365" rx="18" fill="#ffffff" opacity="0.070" transform="rotate(0.1 1171 625)"/>
  <rect x="672" y="1044" width="297" height="388" rx="15" fill="#ffffff" opacity="0.074" transform="rotate(-6.9 820 1238)"/>
  <text x="600" y="564" font-size="408" font-family="Inter, Helvetica Neue, Helvetica, Arial, sans-serif" font-weight="600" fill="#f4f3ef" opacity="0.10" text-anchor="middle" dominant-baseline="central" letter-spacing="0.02em">PR</text>
  <line x1="54" y1="1060" x2="162" y2="1060" stroke="#a8553f" stroke-width="2"/>
  <text x="54" y="1124" font-family="Inter, Helvetica Neue, Helvetica, Arial, sans-serif" font-size="31" fill="#f4f3ef" opacity="0.82" letter-spacing="0.06em">Porcelain Range — Packaging System</text>
  <text x="54" y="1170" font-family="Inter, Helvetica Neue, Helvetica, Arial, sans-serif" font-size="22" fill="#f4f3ef" opacity="0.42" letter-spacing="0.16em">IMAGE 02 — 2024</text>
  <text x="1146" y="85" font-family="Inter, Helvetica Neue, Helvetica, Arial, sans-serif" font-size="24" fill="#f4f3ef" opacity="0.32" text-anchor="end" letter-spacing="0.18em">PLACEHOLDER 1200×1200</text>
  </svg>
